name 900006 ik
datacolumns 165
datarows 4
range 1.0999999999999985 1.1249999999999984
cursor 1.0 1.0 0.0
keys m_key
wrap
enforce_loops no
enforce_constraints no
calc_derivatives 0.008333
event_color 1.000000 0.000000 1.000000
endheader

time	calcn_r_tx	calcn_r_ty	calcn_r_tz	calcn_r_r1	calcn_r_r2	calcn_r_r3	calcn_l_tx	calcn_l_ty	calcn_l_tz	calcn_l_r1	calcn_l_r2	calcn_l_r3	pelvis_tz	pelvis_tx	pelvis_ty	pelvis_tilt	pelvis_list	pelvis_rotation	hip_flexion_r	hip_adduction_r	hip_rotation_r	knee_angle_r	ankle_angle_r	subtalar_angle_r	mtp_angle_r	hip_flexion_l	hip_adduction_l	hip_rotation_l	knee_angle_l	ankle_angle_l	subtalar_angle_l	mtp_angle_l	lumbar_extension	lumbar_bending	lumbar_rotation	ground_force_px	ground_force_py	ground_force_pz	ground_force_vx	ground_force_vy	ground_force_vz	ground_force_px	ground_force_py	ground_force_pz	ground_force_vx	ground_force_vy	ground_force_vz	ground_torque_x	ground_torque_y	ground_torque_z	ground_torque_x	ground_torque_y	ground_torque_z	 midhip_px	 midhip_py	 midhip_pz	 hip_r_px	 hip_r_py	 hip_r_pz	 hip_l_px	 hip_l_py	 hip_l_pz	 knee_r_px	 knee_r_py	 knee_r_pz	 knee_l_px	 knee_l_py	 knee_l_pz	 ankle_r_px	 ankle_r_py	 ankle_r_pz	 ankle_l_px	 ankle_l_py	 ankle_l_pz	 midasis_px	 midasis_py	 midasis_pz	 asis_r_px	 asis_r_py	 asis_r_pz	 asis_l_px	 asis_l_py	 asis_l_pz	 psis_r_px	 psis_r_py	 psis_r_pz	 psis_l_px	 psis_l_py	 psis_l_pz	 epicondLat_r_px	 epicondLat_r_py	 epicondLat_r_pz	 epicondLat_l_px	 epicondLat_l_py	 epicondLat_l_pz	 epicondMed_r_px	 epicondMed_r_py	 epicondMed_r_pz	 epicondMed_l_px	 epicondMed_l_py	 epicondMed_l_pz	 malleolusLat_r_px	 malleolusLat_r_py	 malleolusLat_r_pz	 malleolusLat_l_px	 malleolusLat_l_py	 malleolusLat_l_pz	 malleolusMedv_r_px	 malleolusMedv_r_py	 malleolusMedv_r_pz	 malleolusMedv_l_px	 malleolusMedv_l_py	 malleolusMedv_l_pz	 neck_px	 neck_py	 neck_pz	 subclavicle_r_px	 subclavicle_r_py	 subclavicle_r_pz	 subclavicle_l_px	 subclavicle_l_py	 subclavicle_l_pz	 sternalnotch_px	 sternalnotch_py	 sternalnotch_pz	 xyphoidprocess_px	 xyphoidprocess_py	 xyphoidprocess_pz	 thighwand_r_px	 thighwand_r_py	 thighwand_r_pz	 thighwand_l_px	 thighwand_l_py	 thighwand_l_pz	 upperleg1_r_px	 upperleg1_r_py	 upperleg1_r_pz	 upperleg1_l_px	 upperleg1_l_py	 upperleg1_l_pz	 upperleg2_r_px	 upperleg2_r_py	 upperleg2_r_pz	 upperleg2_l_px	 upperleg2_l_py	 upperleg2_l_pz	 shankwand_r_px	 shankwand_r_py	 shankwand_r_pz	 shankwand_l_px	 shankwand_l_py	 shankwand_l_pz	 lowerleg1_r_px	 lowerleg1_r_py	 lowerleg1_r_pz	 lowerleg1_l_px	 lowerleg1_l_py	 lowerleg1_l_pz	 toe_r_px	 toe_r_py	 toe_r_pz	 toe_l_px	 toe_l_py	 toe_l_pz	
      1.0999999999999985	      1.2980498831293756	      0.0336354709362271	     -0.1451897411965333	      1.1346649866474634	      1.3691012802089864	     -0.2902150979717231	      0.9103821304238303	      0.1938472570348789	     -0.2688178755708797	     -0.7321734472245322	      5.9292481284681999	    -59.0656542125221050	     -0.2254898748372071	      1.3231968744392528	      0.8219005581204728	      3.2629398537562460	     -3.5498729164501688	      1.6408874550489521	     12.4880149919949020	      4.7608111142094973	     -1.1839108094069983	    -17.0693286533893240	      1.2342079879932100	      0.0000000000000000	      0.0000000000000000	     -5.6306995356396694	     -2.1408336590296728	     -3.1918167520315994	    -49.2080736560311040	     -7.5248206693097170	      0.0000000000000000	      0.0000000000000000	    -11.1151101774861300	      6.9600523567123300	     -1.1249946503454429	      1.3718284748578100	      0.0000000000000000	     -0.1476668708740063	    -33.9389017226353930	    385.8801652738081900	    -27.1664804719457640	      0.8911884164358361	      0.0000000000000000	     -0.2433903704610652	      0.0000000050028675	      0.0000000595768977	     -0.0000000123838494	      0.0000000000000000	     -0.4963908423827589	      0.0000000000000000	      0.0000000000000000	     -0.0000000003274456	      0.0000000000000000	      1.2906958215668640	      0.7615213386748688	     -0.2238005947842620	      1.2848372603802414	      0.7617431208419750	     -0.1666725453190489	      1.2965542791976588	      0.7612992358043035	     -0.2809285191251915	      1.3207359133559899	      0.4168466387045561	     -0.1499884875170303	      1.2259781678694588	      0.4042151592256830	     -0.2854997319753116	      1.3456460956747431	      0.0644916011973203	     -0.1571074997311768	      0.9600063782792170	      0.1702125305184465	     -0.2817954543808328	      1.3237516008548811	      0.8347626292759630	     -0.2215137853325466	      1.3276194235454419	      0.8417040049523140	     -0.1111619151763607	      1.3198838984788204	      0.8278215008678101	     -0.3318658871758816	      1.1467419336307902	      0.8625555810206592	     -0.1834224159863860	      1.1483353726537369	      0.8590266099054464	     -0.2366847830187676	      1.3539930607230677	      0.4227019157795730	     -0.0910515316125125	      1.2322038826957198	      0.3918045311777155	     -0.3428579068397096	      1.3263197651408751	      0.4174835022216519	     -0.2072910752838969	      1.2600728958336893	      0.3932075383473914	     -0.2174210851149389	      1.3405053264569669	      0.0635897803385919	     -0.1199727684551550	      0.9548855345265568	      0.1757722973649580	     -0.3175050876702336	      1.3466226099976901	      0.0609039133378324	     -0.1905832278991920	      0.9564034242383658	      0.1775264076367585	     -0.2482408321680029	      1.2023615873052957	      1.2591588526892898	     -0.2023959785578396	      1.3041051698176771	      1.1790339686185820	     -0.1559960357677239	      1.3040153999624058	      1.1848366281649225	     -0.2616457296194386	      1.3012098510073307	      1.1820798530043404	     -0.2118928914714910	      1.3009005246027734	      1.0802202412367561	     -0.2200107076780842	      1.4396934858995674	      0.5813006136279550	     -0.1296931746592256	      1.3590224295229332	      0.5379322827612243	     -0.3620924209168041	      1.3831342383165384	      0.6076534173027723	     -0.0870557853371160	      1.3466292611611572	      0.5826177664814538	     -0.2954090321874621	      1.3831886954055486	      0.5504783315169503	     -0.0918690775655804	      1.3362696753839070	      0.5257574286540956	     -0.2862739448481794	      1.4653901563784197	      0.1858252800751214	     -0.1302389389766696	      1.0327902698841309	      0.2432373127059939	     -0.4078244490912583	      1.3884629147630398	      0.1685448867454173	     -0.1463412948365619	      1.0246036965302636	      0.2394554838508586	     -0.3298014060107997	      1.4285707645230019	      0.0481584271619818	     -0.1461408547440959	      0.9889875620321331	      0.0835848924039024	     -0.2694403369311285	
      1.1083333333333318	      1.2981379764919927	      0.0335987513910025	     -0.1461329961154625	      1.2158624555742363	      0.9966028150429620	     -0.6016496847360809	      0.9316940863627556	      0.1939189112181082	     -0.2692266608648159	     -0.8873822235086110	      5.7187180595443072	    -57.7365169146539830	     -0.2251513647122410	      1.3341466257903025	      0.8230644616576691	      3.0412194289393697	     -3.4106719232478624	      1.6509191188196901	     11.6399183728047380	      4.6756011511600395	     -1.4212267261811526	    -16.6724603787412850	      1.5987749336591610	     -0.0000000000000000	      0.0000000000000000	     -3.5863385455268966	     -2.0714233597613281	     -3.1299854457808021	    -51.0812785869944150	     -6.1341422708164828	      0.0000000000000000	      0.0000000000000000	    -11.2618911323718700	      6.7617703443383101	     -1.0980671002858646	      1.3783244466768916	      0.0000000000000000	     -0.1474281002073417	    -32.4834824489800060	    380.7821790460669100	    -28.1544149688959920	      0.8926643070487929	      0.0000000000000000	     -0.2432317202657351	     -0.0000000017956540	     -0.0000000213836497	      0.0000000044448757	      0.0000000000000000	     -0.3510621790910024	      0.0000000000000000	      0.0000000000000000	      0.0000000001175285	      0.0000000000000000	      1.3011217110046693	      0.7625875398182701	     -0.2236667208843388	      1.2952907516166747	      0.7626331138087933	     -0.1665347466409336	      1.3069526134962488	      0.7625415455042062	     -0.2807985267990904	      1.3255232134998567	      0.4169222318623417	     -0.1498061199104310	      1.2478164982044675	      0.4046481343491969	     -0.2864089591027650	      1.3459852902971010	      0.0645975758037168	     -0.1572685310614077	      0.9826549512846919	      0.1713860518341832	     -0.2813794679919270	      1.3345086548637994	      0.8357582511837619	     -0.2210679890261990	      1.3384566571637924	      0.8422814678031129	     -0.1104436734554459	      1.3305606731871791	      0.8292352831699866	     -0.3316925784974341	      1.1578066852032756	      0.8641325028697529	     -0.1827901143345064	      1.1592903483225288	      0.8605517626469170	     -0.2360871869869019	      1.3578705499480686	      0.4225698382439274	     -0.0907878012903802	      1.2544211270974990	      0.3927285859135890	     -0.3438148002150091	      1.3318747270205731	      0.4175704772289338	     -0.2075141795476712	      1.2819599838487654	      0.3937146357596544	     -0.2195649122957388	      1.3407160515078487	      0.0637127937646182	     -0.1201506048166668	      0.9774348362170531	      0.1768545163332810	     -0.3170889210357976	      1.3468612380756495	      0.0609934350191244	     -0.1907266928224556	      0.9791645775248459	      0.1789745685837590	     -0.2478541582809680	      1.2148945120794132	      1.2611020174741110	     -0.2020748369431528	      1.3162911129126598	      1.1803096082142184	     -0.1561311272761864	      1.3161136525621537	      1.1861487665475023	     -0.2616805203062684	      1.3133492143667729	      1.1833919320224848	     -0.2119745201014538	      1.3124242617937985	      1.0815372267506658	     -0.2201309145665376	      1.4464207620761911	      0.5795737773495746	     -0.1287912733069226	      1.3765848186733822	      0.5421970118600281	     -0.3629815161298979	      1.3897899683370210	      0.6070599620819959	     -0.0866113905786120	      1.3627593862568559	      0.5862783232446852	     -0.2961852487172707	      1.3892477213531975	      0.5498005218046387	     -0.0914753792121436	      1.3541677146022264	      0.5290808255802529	     -0.2874390433898496	      1.4668551339055325	      0.1846100571174792	     -0.1299042439165621	      1.0552106860171784	      0.2441746548504736	     -0.4077887542033445	      1.3896745009114193	      0.1679745826443702	     -0.1461334353511295	      1.0473540585952104	      0.2408694697351351	     -0.3297279495813745	      1.4287296528531954	      0.0479018389316047	     -0.1461315820649730	      1.0137056192431853	      0.0861326793094341	     -0.2699526359523815	
      1.1166666666666651	      1.2985673053556637	      0.0335295220611358	     -0.1453632088653421	      1.1448434833842858	      0.6527282586514615	     -0.7832609361535113	      0.9540462467352254	      0.1922347378004933	     -0.2703918661942767	     -1.0664327241376268	      5.3415371323925251	    -55.6648576447671180	     -0.2247657954033420	      1.3447342739435304	      0.8242290359417590	      2.8753638891328057	     -3.2589632412778480	      1.6367209426187916	     10.7474151315150870	      4.4609734864098156	     -1.5633955444713683	    -16.2125503395627110	      2.0112181410267405	     -0.0000000000000000	      0.0000000000000000	     -1.5398834427725177	     -2.0042329241111467	     -3.0205777133432967	    -52.7236835119471150	     -4.2848847151981015	      0.0000000000000000	      0.0000000000000000	    -11.3839427815959070	      6.5494660265948950	     -1.0386173412212893	      1.3851011972538319	      0.0000000000000000	     -0.1474638399322206	    -31.2766769131338870	    377.2675451258932100	    -28.1799838054075770	      0.8941829793619975	      0.0000000000000000	     -0.2431133400430129	      0.0000000001557991	      0.0000000018553429	     -0.0000000003856577	      0.0000000000000000	     -0.2096220056175630	      0.0000000000000000	      0.0000000000000000	     -0.0000000000101973	      0.0000000000000000	      1.3115302409059379	      0.7635601188011264	     -0.2235780805547054	      1.3057129012691575	      0.7634357947451528	     -0.1664444318607590	      1.3173476067673999	      0.7636839825614820	     -0.2807115878932606	      1.3300502361068438	      0.4169668827839772	     -0.1496925225741166	      1.2696715738963043	      0.4053274904660499	     -0.2873832991942628	      1.3462837677166399	      0.0647117397234484	     -0.1574485315424758	      1.0061556224478210	      0.1715981447180605	     -0.2807088861321156	      1.3452081907327589	      0.8366550238235959	     -0.2206708739459827	      1.3492135142196215	      0.8427629373739333	     -0.1097539750903263	      1.3412028041765123	      0.8305473311938166	     -0.3315881599743098	      1.1687106156908456	      0.8656018952459024	     -0.1822468066331494	      1.1702087535889345	      0.8619698130690801	     -0.2355366940057158	      1.3616077462459355	      0.4224397620474869	     -0.0906190207536376	      1.2765393709898927	      0.3940144647083872	     -0.3448735436907170	      1.3370082959027141	      0.4173161204847913	     -0.2073197066370429	      1.3032054408140641	      0.3949138308747534	     -0.2211622563329934	      1.3409270673949958	      0.0638491297461195	     -0.1203421608001074	      1.0007613277507568	      0.1769533343769316	     -0.3164098779792784	      1.3470798505812447	      0.0610717335089413	     -0.1908895023826779	      1.0029614836040550	      0.1792340021403717	     -0.2472146272452829	      1.2272674934878212	      1.2629290025217836	     -0.2018146133075131	      1.3284549765215268	      1.1814906588204093	     -0.1563518868253272	      1.3281426634251559	      1.1873746240552188	     -0.2618364652056461	      1.3254416688518864	      1.1846116461653386	     -0.2121583859873906	      1.3239727918554414	      1.0827643821805426	     -0.2203568211736877	      1.4529165243363273	      0.5778325296186216	     -0.1282291912485754	      1.3941044996159428	      0.5466238040184465	     -0.3636281942209561	      1.3963596530055633	      0.6064483714387541	     -0.0865144751023911	      1.3785712423178902	      0.5901616657215316	     -0.2966925960491021	      1.3951700338399968	      0.5491250697136390	     -0.0912349506072153	      1.3716749852115382	      0.5326618681445744	     -0.2881840307277758	      1.4682294999894980	      0.1834638800402243	     -0.1297399847726693	      1.0779807042373966	      0.2445373633141178	     -0.4076093606817324	      1.3908526991811265	      0.1674430499232602	     -0.1460375273702649	      1.0707839834551853	      0.2414901706473676	     -0.3294276190372502	      1.4289047573099685	      0.0476964196729563	     -0.1461626798439365	      1.0399392201428150	      0.0879456357395278	     -0.2705776442388270	
      1.1249999999999984	      1.2990410265511427	      0.0335591876834342	     -0.1466607461246438	      1.2004240951573519	      0.5540008558285301	     -0.9487865446438868	      0.9781952362799631	      0.1891767726418421	     -0.2703549547805015	     -1.3590804173216682	      5.0325886470214787	    -52.9301789712000930	     -0.2247208692466136	      1.3555373039138574	      0.8256117392917406	      2.7006518087941758	     -2.9883846182286322	      1.7148965393796309	      9.7803783146222205	      4.2958941527312042	     -1.5698025539141158	    -15.6202963795936340	      2.3988401956170819	     -0.0000000000000000	      0.0000000000000000	      0.5795444949635038	     -1.7234682327321331	     -2.9658988102665127	    -54.0873092654303350	     -2.1121180545600939	      0.0000000000000000	      0.0000000000000000	    -11.4460016779302480	      6.3189868555385029	     -0.9349627415606464	      1.3920018299999941	      0.0000000000000000	     -0.1477416399999913	    -30.2210087399913410	    375.2915994899950600	    -27.5014296800131890	      0.8959114399999907	      0.0000000000000000	     -0.2430025599999927	     -0.0000000000006278	     -0.0000000000074758	      0.0000000000015540	      0.0000000000000000	     -0.0716693099995164	      0.0000000000000000	      0.0000000000000000	      0.0000000000000411	      0.0000000000000000	      1.3219114602753277	      0.7644868947554718	     -0.2235072938770014	      1.3160921592608026	      0.7641847779389481	     -0.1663744456300363	      1.3277309116464631	      0.7647885776161013	     -0.2806400787209999	      1.3341030463169625	      0.4170887418366003	     -0.1496457917604487	      1.2915537359793412	      0.4061724602668372	     -0.2884337462908414	      1.3465447519184421	      0.0648284498597983	     -0.1576537306646587	      1.0305008446142903	      0.1708153573386039	     -0.2798279344636017	      1.3558548937244448	      0.8374917572291253	     -0.2202858957325215	      1.3598909652278406	      0.8431670335456463	     -0.1090791663029851	      1.3518186831973407	      0.8318166527107540	     -0.3314931756733135	      1.1794809215189626	      0.8669970246295290	     -0.1817920339609654	      1.1810529287141052	      0.8633426847617554	     -0.2350588051705966	      1.3652192038038662	      0.4223124044096287	     -0.0905386790890332	      1.2984570722528366	      0.3956264400227668	     -0.3460269643432510	      1.3414845515645986	      0.4169026215958899	     -0.2067956718347748	      1.3240513846700626	      0.3967224470458201	     -0.2221269857187905	      1.3411436139860455	      0.0639906484630129	     -0.1205531280034983	      1.0248505565153883	      0.1760480607253210	     -0.3155078787499759	      1.3472711297871800	      0.0611448381041499	     -0.1910792207612309	      1.0277374865325422	      0.1782874416349296	     -0.2463614834759492	      1.2394827870365150	      1.2646237847155577	     -0.2016220538107752	      1.3406099452347848	      1.1826100997299631	     -0.1566584288133408	      1.3400841642397068	      1.1885167059740318	     -0.2621017325878244	      1.3374837579002237	      1.1857552572428440	     -0.2124378395841388	      1.3355625640913382	      1.0839150142498275	     -0.2206530012602452	      1.4592239691439088	      0.5760686778507617	     -0.1279606693154394	      1.4115339702671841	      0.5511778391984067	     -0.3640889758592369	      1.4029304069083399	      0.6057940651789683	     -0.0866815348381578	      1.3941185631613009	      0.5942131527006778	     -0.2970116846814501	      1.4009516137080715	      0.5484175253127077	     -0.0911190214941876	      1.3888821593262135	      0.5364502017648268	     -0.2885672105238398	      1.4695208927164467	      0.1823771458623556	     -0.1297553572084392	      1.1010275602514961	      0.2443191824326953	     -0.4072970870451893	      1.3920008822728918	      0.1669517685614399	     -0.1460544878415720	      1.0947891452477079	      0.2413205874068749	     -0.3289213943409972	      1.4290991099464909	      0.0475347481741469	     -0.1462565266170870	      1.0675014629272055	      0.0889921002079865	     -0.2713063225164507	
